<svg width="19" height="19" viewBox="0 0 19 19" fill="none" xmlns="http://www.w3.org/2000/svg">
<path d="M8.02222 13.9333L15.4639 6.49167L13.9861 5.01389L8.02222 10.9778L5.01389 7.96945L3.53611 9.44722L8.02222 13.9333ZM2.11111 19C1.53056 19 1.03339 18.7931 0.619613 18.3793C0.205835 17.9656 -0.000701911 17.4687 1.79212e-06 16.8889V2.11111C1.79212e-06 1.53056 0.206891 1.03339 0.620668 0.619613C1.03445 0.205835 1.53126 -0.000701911 2.11111 1.79212e-06H16.8889C17.4694 1.79212e-06 17.9666 0.206891 18.3804 0.620668C18.7942 1.03445 19.0007 1.53126 19 2.11111V16.8889C19 17.4694 18.7931 17.9666 18.3793 18.3804C17.9656 18.7942 17.4687 19.0007 16.8889 19H2.11111Z" fill="url(#paint0_linear_14_775)"/>
<defs>
<linearGradient id="paint0_linear_14_775" x1="0.499999" y1="0.5" x2="18.5" y2="18" gradientUnits="userSpaceOnUse">
<stop stop-color="#FFCE4F"/>
<stop offset="1" stop-color="#1CBEC8"/>
</linearGradient>
</defs>
</svg>
