<svg width="23" height="27" viewBox="0 0 23 27" fill="none" xmlns="http://www.w3.org/2000/svg">
<path fill-rule="evenodd" clip-rule="evenodd" d="M12.0543 2.3997C11.5627 2.86724 10.966 3.62321 10.0815 4.75058L9.63468 5.32084C9.60529 5.35813 9.57593 5.39545 9.54662 5.43279C9.14576 5.94643 8.77514 6.41923 8.25468 6.69712C7.72503 6.98028 7.13229 7.01321 6.50932 7.04745L6.37264 7.05535L5.68002 7.09486C4.30528 7.17388 3.39317 7.23052 2.75838 7.36748C2.14593 7.49919 2.05393 7.65459 2.0145 7.73361C1.96718 7.82844 1.9041 8.02731 2.16038 8.65157C2.42192 9.28901 2.90558 10.1135 3.62974 11.3409L3.99643 11.9599L4.06477 12.0771C4.39991 12.6408 4.70088 13.1492 4.77974 13.7418C4.85859 14.3292 4.70614 14.9048 4.53397 15.5527L4.49848 15.6858L4.31054 16.3969C3.93991 17.8048 3.6902 18.7557 3.6074 19.4537C3.52329 20.1517 3.6442 20.3098 3.69283 20.3612L3.69546 20.3638C3.727 20.398 3.83346 20.5152 4.44722 20.4441C5.03602 20.377 5.82853 20.1676 6.98115 19.8502C6.64647 19.5784 6.3287 19.2863 6.02961 18.9757C5.58276 18.4949 5.15956 17.8575 5.27653 17.0344C5.39482 16.2047 5.98493 15.7174 6.55138 15.3881C7.09549 15.076 7.85251 14.7796 8.72125 14.4385L9.27456 14.2212C9.5545 14.1106 9.70827 14.05 9.8213 13.9947C9.85542 13.9795 9.88799 13.9609 9.91856 13.9394C9.93909 13.9091 9.95669 13.8769 9.97113 13.8432C10.0237 13.73 10.0828 13.5733 10.188 13.2927L10.3943 12.7343C10.7203 11.8585 11.0028 11.0973 11.3077 10.5481C11.6245 9.97517 12.1016 9.37593 12.9269 9.24423C13.7457 9.11253 14.3884 9.52344 14.8786 9.96069C15.3491 10.3834 15.8749 11.013 16.4821 11.74L16.8645 12.2009C17.059 12.4327 17.1694 12.5644 17.2588 12.6553C17.287 12.6847 17.3173 12.712 17.3495 12.737L17.3534 12.7396L17.356 12.7409L17.3692 12.7449C17.4038 12.7538 17.4389 12.7604 17.4743 12.7646C17.6722 12.786 17.8708 12.8005 18.0697 12.8081L18.6651 12.8397L19.4733 12.8858C20.0911 12.3419 20.5024 11.9415 20.7587 11.6056C21.0347 11.2448 21.0373 11.0828 21.0242 10.988C21.0111 10.8945 20.9703 10.714 20.4328 10.3848C19.8742 10.0423 19.0291 9.68675 17.7556 9.15731L17.1129 8.88864C17.0713 8.87103 17.0297 8.85347 16.9881 8.83596C16.4085 8.59626 15.8604 8.36973 15.453 7.92853C15.0521 7.49523 14.855 6.9276 14.6394 6.3086C14.6238 6.26379 14.608 6.21901 14.5921 6.17427L14.3516 5.48679C13.8758 4.12763 13.5538 3.21362 13.2384 2.60648C12.9283 2.01118 12.7613 1.98484 12.7298 1.97958H12.7259C12.6969 1.97299 12.5353 1.9427 12.0556 2.3997H12.0543ZM21.8719 13.3336C22.0317 13.166 22.1826 12.9901 22.324 12.8068C22.7761 12.2154 23.0863 11.5345 22.9785 10.7259C22.8497 9.7605 22.2005 9.15204 21.4605 8.69899C20.7561 8.26832 19.7651 7.8561 18.5902 7.36485L17.8712 7.06457C17.0853 6.73663 16.9775 6.66947 16.8987 6.58649C16.8146 6.4943 16.7462 6.35865 16.4518 5.51971L16.1863 4.75584C15.7434 3.49283 15.3754 2.44185 14.9864 1.69378C14.5895 0.932549 14.027 0.197655 13.0597 0.0317106C12.0871 -0.134233 11.3169 0.376768 10.6979 0.966791C10.0881 1.54628 9.40336 2.41814 8.58194 3.46517L8.08514 4.09865C7.5384 4.79535 7.43195 4.89808 7.3268 4.95471C7.22955 5.00739 7.10863 5.03373 6.25961 5.08246L5.56699 5.12197L5.48287 5.12724C4.2146 5.20099 3.14609 5.26289 2.34175 5.43674C1.49667 5.61981 0.681821 5.98067 0.249424 6.85517C-0.176401 7.71386 0.00365434 8.59099 0.337481 9.40359C0.659478 10.1885 1.21936 11.1381 1.89358 12.2786L2.2997 12.9661C2.74261 13.7168 2.80701 13.8617 2.82541 14.0039C2.84512 14.1527 2.81884 14.32 2.59278 15.1813L2.38512 15.9689C2.03815 17.2807 1.75164 18.3659 1.64913 19.218C1.5453 20.0872 1.59393 20.996 2.24712 21.7032C2.91872 22.4315 3.82426 22.5066 4.67328 22.4078C5.48813 22.313 6.52641 22.0259 7.75789 21.6834L7.92611 21.6373L8.71205 21.2554L8.76857 21.3068C8.79828 21.3341 8.82596 21.3636 8.85137 21.395L8.85268 21.3976L8.85399 21.4016C8.89013 21.637 8.91644 21.8738 8.93285 22.1115L8.97622 22.7054C9.04456 23.6445 9.10371 24.4571 9.24039 25.0734C9.38496 25.7188 9.67147 26.4207 10.4101 26.7935C11.1513 27.1662 11.8847 26.9726 12.484 26.6986C13.0544 26.4379 13.7326 25.994 14.5146 25.4843L15.0114 25.1604C15.1745 25.05 15.3416 24.9454 15.5121 24.8469C15.5418 24.8304 15.5725 24.8159 15.6041 24.8034L15.6146 24.7995H15.6317C15.6475 24.7995 15.679 24.8021 15.7355 24.8127C15.8604 24.8337 16.0247 24.8759 16.3178 24.9523L16.8961 25.1037C17.8095 25.3408 18.6007 25.5476 19.2263 25.616C19.8768 25.6872 20.6431 25.645 21.2279 25.0497C21.8141 24.4531 21.843 23.684 21.7602 23.0347C21.6813 22.4078 21.4592 21.6215 21.2056 20.7128L21.0439 20.1373C20.9868 19.9459 20.9364 19.7526 20.8928 19.5578C20.8853 19.5239 20.88 19.4896 20.877 19.455V19.4419L20.8809 19.43C20.8928 19.3984 20.9069 19.3676 20.923 19.3378C20.9795 19.2285 21.0676 19.0876 21.2266 18.8334L21.542 18.3303C22.0388 17.5401 22.4699 16.8539 22.7196 16.2771C22.9825 15.6739 23.1638 14.9337 22.7761 14.1975C22.5756 13.8194 22.2584 13.5163 21.8719 13.3336ZM13.2108 11.1934L13.2253 11.196C13.2161 11.196 13.2121 11.1947 13.2108 11.1934ZM13.2424 11.2026C13.3612 11.2624 13.4699 11.3407 13.5644 11.4344C13.9153 11.7479 14.3477 12.2628 15.0166 13.0649L15.3531 13.4679L15.4241 13.5535C15.7171 13.9065 16.0286 14.2844 16.4676 14.5044C16.9079 14.7256 17.3955 14.7507 17.8515 14.7744L17.9632 14.781L18.4824 14.8073C19.5207 14.8653 20.1857 14.9034 20.6444 14.997C20.7779 15.0182 20.9073 15.0599 21.0281 15.1208V15.126C21.0085 15.2514 20.97 15.3731 20.9138 15.4869C20.7298 15.9096 20.3815 16.4694 19.8321 17.3439L19.5575 17.7824L19.4983 17.8759C19.2578 18.2579 18.995 18.6741 18.9253 19.1627C18.8556 19.65 18.991 20.1241 19.1146 20.5627L19.1461 20.6707L19.2867 21.1738C19.568 22.1773 19.7467 22.8213 19.8045 23.2836C19.8308 23.4943 19.8243 23.605 19.8151 23.6563C19.6902 23.6728 19.5637 23.6714 19.4392 23.6524C18.9752 23.601 18.3273 23.4351 17.3193 23.173L16.8133 23.0413L16.7055 23.0123C16.2639 22.8964 15.7894 22.77 15.3045 22.8477C14.8182 22.9267 14.4068 23.1954 14.0296 23.4443L13.9363 23.5049L13.5026 23.7867C12.6391 24.3517 12.0845 24.7086 11.6652 24.9022C11.5516 24.9608 11.4297 25.0016 11.3038 25.0234H11.2959C11.2327 24.9041 11.1884 24.7757 11.1645 24.6428C11.0633 24.1871 11.0133 23.5233 10.9371 22.4868L10.9003 21.9679L10.8924 21.856C10.8609 21.4016 10.8267 20.913 10.5967 20.4771C10.368 20.0424 9.98427 19.7356 9.62679 19.4498L9.53873 19.38L9.13131 19.0507C8.31645 18.3975 7.79337 17.9747 7.47269 17.6283C7.37847 17.537 7.29869 17.4317 7.23612 17.3162C7.32506 17.2304 7.42601 17.1581 7.53577 17.1015C7.93531 16.8711 8.54908 16.6274 9.51245 16.2494L9.99347 16.0598L10.0986 16.0203C10.5192 15.8556 10.9792 15.6778 11.3235 15.3262C11.6692 14.9732 11.84 14.5097 11.9964 14.0882L12.0359 13.9829L12.2159 13.4969C12.576 12.5275 12.8073 11.9099 13.0308 11.5069C13.0858 11.3954 13.1571 11.2929 13.2424 11.2026ZM7.22823 17.282C7.22823 17.282 7.23086 17.2886 7.23086 17.2978C7.22692 17.2872 7.22692 17.282 7.22823 17.282ZM7.22561 17.3307L7.21772 17.3465C7.2164 17.3465 7.21772 17.3412 7.22561 17.3307ZM19.8045 23.6945C19.8045 23.6945 19.8059 23.6879 19.8111 23.68C19.8085 23.6906 19.8059 23.6958 19.8045 23.6945ZM19.84 23.6497C19.8443 23.6465 19.8492 23.6442 19.8545 23.6432C19.8545 23.6432 19.8505 23.6471 19.84 23.6497ZM13.2568 11.1908C13.2673 11.1829 13.2726 11.1816 13.2726 11.1829L13.2568 11.1908Z" fill="#CACACA"/>
</svg>
