<svg width="49" height="48" viewBox="0 0 49 48" fill="none" xmlns="http://www.w3.org/2000/svg">
<g filter="url(#filter0_d_30_1138)">
<path d="M9.14758 23.3019C9.14758 14.8511 15.9979 8.00081 24.4486 8.00081C25.1571 8.00081 25.2749 9.06118 24.6675 9.4284C23.3755 10.2084 22.278 11.2721 21.4581 12.5391C20.6382 13.806 20.1173 15.243 19.935 16.741C19.7526 18.2391 19.9136 19.759 20.4057 21.1857C20.8978 22.6123 21.708 23.9083 22.7751 24.9754C23.8423 26.0425 25.1382 26.8528 26.5649 27.3449C27.9915 27.8369 29.5114 27.9979 31.0095 27.8156C32.5076 27.6332 33.9445 27.1124 35.2114 26.2924C36.4784 25.4725 37.5421 24.375 38.3221 23.0831C38.6894 22.4772 39.7497 22.5934 39.7497 23.3019C39.7497 25.0431 39.459 26.7156 38.9235 28.2747H39.7497C40.0541 28.2747 40.346 28.3956 40.5612 28.6108C40.7764 28.8261 40.8973 29.118 40.8973 29.4223C40.8973 29.7267 40.7764 30.0186 40.5612 30.2338C40.346 30.449 40.0541 30.5699 39.7497 30.5699H9.14758C8.84322 30.5699 8.55133 30.449 8.33612 30.2338C8.12091 30.0186 8 29.7267 8 29.4223C8 29.118 8.12091 28.8261 8.33612 28.6108C8.55133 28.3956 8.84322 28.2747 9.14758 28.2747H9.97384C9.42502 26.6743 9.1458 24.9938 9.14758 23.3019ZM13.7379 32.8651C13.4335 32.8651 13.1417 32.986 12.9264 33.2012C12.7112 33.4164 12.5903 33.7083 12.5903 34.0126C12.5903 34.317 12.7112 34.6089 12.9264 34.8241C13.1417 35.0393 13.4335 35.1602 13.7379 35.1602H35.1594C35.4638 35.1602 35.7556 35.0393 35.9709 34.8241C36.1861 34.6089 36.307 34.317 36.307 34.0126C36.307 33.7083 36.1861 33.4164 35.9709 33.2012C35.7556 32.986 35.4638 32.8651 35.1594 32.8651H13.7379ZM18.3282 37.4554C18.0239 37.4554 17.732 37.5763 17.5168 37.7915C17.3015 38.0067 17.1806 38.2986 17.1806 38.603C17.1806 38.9073 17.3015 39.1992 17.5168 39.4144C17.732 39.6296 18.0239 39.7505 18.3282 39.7505H30.5691C30.8734 39.7505 31.1653 39.6296 31.3805 39.4144C31.5958 39.1992 31.7167 38.9073 31.7167 38.603C31.7167 38.2986 31.5958 38.0067 31.3805 37.7915C31.1653 37.5763 30.8734 37.4554 30.5691 37.4554H18.3282ZM36.5365 8.47056C36.4824 8.33192 36.3878 8.21283 36.2649 8.12888C36.1421 8.04492 35.9967 8 35.8479 8C35.6991 8 35.5538 8.04492 35.431 8.12888C35.3081 8.21283 35.2135 8.33192 35.1594 8.47056L34.5014 10.146C34.4646 10.2407 34.4086 10.3268 34.337 10.3989C34.2654 10.4711 34.1797 10.5277 34.0853 10.5653L32.4159 11.2263C32.2777 11.2813 32.1591 11.3766 32.0756 11.4998C31.9921 11.6229 31.9475 11.7683 31.9475 11.9171C31.9475 12.0659 31.9921 12.2113 32.0756 12.3345C32.1591 12.4576 32.2777 12.5529 32.4159 12.608L34.0853 13.269C34.1797 13.3061 34.2655 13.3623 34.3371 13.4342C34.4087 13.5061 34.4647 13.5921 34.5014 13.6867L35.1594 15.3606C35.4073 15.988 36.2917 15.988 36.5365 15.3606L37.1944 13.6852C37.2317 13.5906 37.288 13.5047 37.3598 13.4328C37.4317 13.361 37.5176 13.3047 37.6122 13.2674L39.2815 12.6064C39.4197 12.5514 39.5383 12.4561 39.6218 12.3329C39.7053 12.2098 39.75 12.0644 39.75 11.9156C39.75 11.7668 39.7053 11.6214 39.6218 11.4982C39.5383 11.3751 39.4197 11.2798 39.2815 11.2247L37.6122 10.5637C37.5174 10.5263 37.4315 10.4698 37.3596 10.3977C37.2877 10.3255 37.2315 10.2393 37.1944 10.1445L36.5365 8.47056Z" fill="url(#paint0_linear_30_1138)"/>
<path d="M30.6196 17.3804C30.5656 17.2417 30.4709 17.1226 30.3481 17.0387C30.2252 16.9547 30.0799 16.9098 29.9311 16.9098C29.7823 16.9098 29.6369 16.9547 29.5141 17.0387C29.3912 17.1226 29.2966 17.2417 29.2425 17.3804L29.0023 17.9909C28.9652 18.0853 28.9092 18.1711 28.8376 18.243C28.766 18.3148 28.6804 18.3712 28.5861 18.4086L27.9771 18.6504C27.8389 18.7054 27.7203 18.8007 27.6368 18.9239C27.5533 19.047 27.5087 19.1924 27.5087 19.3412C27.5087 19.49 27.5533 19.6354 27.6368 19.7585C27.7203 19.8817 27.8389 19.977 27.9771 20.032L28.5861 20.2723C28.7774 20.3488 28.9273 20.4987 29.0023 20.6915L29.2425 21.302C29.4889 21.9294 30.3733 21.9294 30.6196 21.302L30.8598 20.69C30.8969 20.5956 30.953 20.5098 31.0246 20.4379C31.0962 20.3661 31.1818 20.3097 31.276 20.2723L31.885 20.032C32.0233 19.977 32.1418 19.8817 32.2253 19.7585C32.3088 19.6354 32.3535 19.49 32.3535 19.3412C32.3535 19.1924 32.3088 19.047 32.2253 18.9239C32.1418 18.8007 32.0233 18.7054 31.885 18.6504L31.276 18.4086C31.1818 18.3712 31.0962 18.3148 31.0246 18.243C30.953 18.1711 30.8969 18.0853 30.8598 17.9909L30.6196 17.3788V17.3804Z" fill="url(#paint1_linear_30_1138)"/>
</g>
<defs>
<filter id="filter0_d_30_1138" x="0" y="0" width="48.8973" height="47.7505" filterUnits="userSpaceOnUse" color-interpolation-filters="sRGB">
<feFlood flood-opacity="0" result="BackgroundImageFix"/>
<feColorMatrix in="SourceAlpha" type="matrix" values="0 0 0 0 0 0 0 0 0 0 0 0 0 0 0 0 0 0 127 0" result="hardAlpha"/>
<feOffset/>
<feGaussianBlur stdDeviation="4"/>
<feComposite in2="hardAlpha" operator="out"/>
<feColorMatrix type="matrix" values="0 0 0 0 0.0745098 0 0 0 0 0.109804 0 0 0 0 0.137255 0 0 0 0.13 0"/>
<feBlend mode="normal" in2="BackgroundImageFix" result="effect1_dropShadow_30_1138"/>
<feBlend mode="normal" in="SourceGraphic" in2="effect1_dropShadow_30_1138" result="shape"/>
</filter>
<linearGradient id="paint0_linear_30_1138" x1="24.4486" y1="21.5" x2="24.4486" y2="40" gradientUnits="userSpaceOnUse">
<stop stop-color="#FFB800"/>
<stop offset="1" stop-color="#1CBEC8"/>
</linearGradient>
<linearGradient id="paint1_linear_30_1138" x1="24.4486" y1="21.5" x2="24.4486" y2="40" gradientUnits="userSpaceOnUse">
<stop stop-color="#FFB800"/>
<stop offset="1" stop-color="#1CBEC8"/>
</linearGradient>
</defs>
</svg>
