<svg width="12" height="11" viewBox="0 0 12 11" fill="none" xmlns="http://www.w3.org/2000/svg">
<path d="M2.99375 0.0520594C3.52455 -0.0400385 4.06888 -0.00965765 4.58662 0.140962C5.10435 0.291582 5.58229 0.558602 5.98521 0.922337L6.0074 0.942491L6.02779 0.924169C6.41234 0.580514 6.86443 0.324316 7.3539 0.172666C7.84338 0.0210162 8.35898 -0.0225988 8.86632 0.0447308L9.01385 0.0667168C9.65335 0.179156 10.2511 0.465613 10.7438 0.895752C11.2364 1.32589 11.6057 1.8837 11.8125 2.51011C12.0192 3.13652 12.0558 3.80821 11.9183 4.45406C11.7808 5.0999 11.4743 5.69586 11.0313 6.17881L10.9234 6.2918L10.8946 6.31684L6.42661 10.8233C6.32351 10.9273 6.1869 10.9896 6.04212 10.9988C5.89733 11.008 5.75417 10.9635 5.63917 10.8734L5.58279 10.8233L1.08901 6.29057C0.612951 5.81889 0.27439 5.22223 0.110819 4.56667C-0.0527521 3.91112 -0.0349505 3.22225 0.162252 2.57636C0.359455 1.93047 0.728363 1.35277 1.22812 0.907235C1.72788 0.461697 2.33898 0.165712 2.99375 0.0520594Z" fill="url(#paint0_linear_256_1184)"/>
<defs>
<linearGradient id="paint0_linear_256_1184" x1="3" y1="-1.32078e-08" x2="7" y2="10.5" gradientUnits="userSpaceOnUse">
<stop stop-color="#7A99A4"/>
<stop offset="1" stop-color="#2F7381"/>
</linearGradient>
</defs>
</svg>
