<svg width="12" height="11" viewBox="0 0 12 11" fill="none" xmlns="http://www.w3.org/2000/svg">
<path id="heart-path" d="M10.1691 5.82473L6.00463 10L1.84012 5.82473C1.56543 5.55414 1.34906 5.22891 1.20464 4.86952C1.06022 4.51012 0.99087 4.12435 1.00096 3.73649C1.01106 3.34863 1.10037 2.96709 1.26328 2.61589C1.42619 2.26469 1.65918 1.95144 1.94755 1.69587C2.23593 1.4403 2.57346 1.24794 2.93889 1.13091C3.30431 1.01387 3.68972 0.974701 4.07083 1.01586C4.45195 1.05701 4.82052 1.1776 5.15333 1.37004C5.48615 1.56247 5.77599 1.82258 6.00463 2.13398C6.23425 1.82484 6.52443 1.56701 6.85702 1.37661C7.1896 1.18622 7.55743 1.06737 7.93748 1.0275C8.31752 0.987633 8.70161 1.0276 9.06569 1.14491C9.42978 1.26222 9.76603 1.45433 10.0534 1.70924C10.3408 1.96415 10.5731 2.27635 10.7357 2.62632C10.8984 2.97629 10.988 3.35648 10.9989 3.74311C11.0097 4.12974 10.9417 4.51447 10.7989 4.87323C10.6561 5.232 10.4417 5.55707 10.1691 5.8281" stroke="#8F8F8F" stroke-linecap="round" stroke-linejoin="round"/>
</svg>