<svg width="9" height="14" viewBox="0 0 9 14" fill="none" xmlns="http://www.w3.org/2000/svg">
<path d="M6.69847 13.6547L0.377862 7.87892C0.240457 7.75336 0.143358 7.61734 0.0865645 7.47085C0.0297706 7.32436 0.00091603 7.16741 0 7C0 6.83259 0.0288546 6.67563 0.0865645 6.52915C0.144274 6.38266 0.241374 6.24664 0.377862 6.12108L6.69847 0.345291C6.95038 0.115097 7.27099 0 7.6603 0C8.04962 0 8.37023 0.115097 8.62214 0.345291C8.87404 0.575485 9 0.86846 9 1.22422C9 1.57997 8.87404 1.87294 8.62214 2.10314L3.26336 7L8.62214 11.8969C8.87404 12.1271 9 12.42 9 12.7758C9 13.1315 8.87404 13.4245 8.62214 13.6547C8.37023 13.8849 8.04962 14 7.6603 14C7.27099 14 6.95038 13.8849 6.69847 13.6547Z" fill="#A2A2A2"/>
</svg>
