<svg width="49" height="48" viewBox="0 0 49 48" fill="none" xmlns="http://www.w3.org/2000/svg">
<g filter="url(#filter0_d_30_1139)">
<path fill-rule="evenodd" clip-rule="evenodd" d="M39.2721 29.3492C39.8455 27.6966 40.1566 25.9226 40.1566 24.0783C40.1566 23.0059 39.3026 22.4705 38.6221 22.3778C37.967 22.2895 37.1339 22.5318 36.6792 23.2841C35.9144 24.5538 34.8341 25.6041 33.5434 26.3329C32.2527 27.0617 30.7954 27.4443 29.3131 27.4435C27.0322 27.4435 24.8448 26.5375 23.232 24.9247C21.6192 23.3118 20.7131 21.1244 20.7131 18.8435C20.7124 17.3613 21.0951 15.904 21.8239 14.6134C22.5527 13.3227 23.6029 12.2424 24.8725 11.4774C25.6248 11.0227 25.8671 10.1896 25.7789 9.53454C25.6861 8.85402 25.1507 8 24.0783 8C15.1986 8 8 15.1986 8 24.0783C8 25.9226 8.31112 27.6966 8.88452 29.3492C8.58657 29.4485 8.37174 29.7296 8.37174 30.0609C8.37174 30.4752 8.70753 30.8109 9.12174 30.8109H39.0349C39.4491 30.8109 39.7849 30.4752 39.7849 30.0609C39.7849 29.7296 39.5701 29.4485 39.2721 29.3492ZM14.2956 14.2956C11.7011 16.8901 10.2435 20.4091 10.2435 24.0783C10.2411 25.8736 10.5895 27.651 11.2678 29.3109H26.482C24.6686 28.8204 22.9971 27.8625 21.6456 26.511C19.612 24.4775 18.4696 21.7194 18.4696 18.8435C18.4687 16.975 18.951 15.138 19.8695 13.5108C20.5666 12.276 21.497 11.1938 22.6045 10.3222C19.4771 10.6571 16.5404 12.0508 14.2956 14.2956ZM32.1493 29.3109H36.8888C37.3808 28.107 37.6992 26.8413 37.8361 25.5518C36.9642 26.6596 35.8817 27.5901 34.6465 28.2873C33.8567 28.7331 33.0175 29.0761 32.1493 29.3109Z" fill="#545454"/>
<path fill-rule="evenodd" clip-rule="evenodd" d="M39.2721 29.3492C39.8455 27.6966 40.1566 25.9226 40.1566 24.0783C40.1566 23.0059 39.3026 22.4705 38.6221 22.3778C37.967 22.2895 37.1339 22.5318 36.6792 23.2841C35.9144 24.5538 34.8341 25.6041 33.5434 26.3329C32.2527 27.0617 30.7954 27.4443 29.3131 27.4435C27.0322 27.4435 24.8448 26.5375 23.232 24.9247C21.6192 23.3118 20.7131 21.1244 20.7131 18.8435C20.7124 17.3613 21.0951 15.904 21.8239 14.6134C22.5527 13.3227 23.6029 12.2424 24.8725 11.4774C25.6248 11.0227 25.8671 10.1896 25.7789 9.53454C25.6861 8.85402 25.1507 8 24.0783 8C15.1986 8 8 15.1986 8 24.0783C8 25.9226 8.31112 27.6966 8.88452 29.3492C8.58657 29.4485 8.37174 29.7296 8.37174 30.0609C8.37174 30.4752 8.70753 30.8109 9.12174 30.8109H39.0349C39.4491 30.8109 39.7849 30.4752 39.7849 30.0609C39.7849 29.7296 39.5701 29.4485 39.2721 29.3492ZM14.2956 14.2956C11.7011 16.8901 10.2435 20.4091 10.2435 24.0783C10.2411 25.8736 10.5895 27.651 11.2678 29.3109H26.482C24.6686 28.8204 22.9971 27.8625 21.6456 26.511C19.612 24.4775 18.4696 21.7194 18.4696 18.8435C18.4687 16.975 18.951 15.138 19.8695 13.5108C20.5666 12.276 21.497 11.1938 22.6045 10.3222C19.4771 10.6571 16.5404 12.0508 14.2956 14.2956ZM32.1493 29.3109H36.8888C37.3808 28.107 37.6992 26.8413 37.8361 25.5518C36.9642 26.6596 35.8817 27.5901 34.6465 28.2873C33.8567 28.7331 33.0175 29.0761 32.1493 29.3109Z" fill="url(#paint0_linear_30_1139)"/>
<path d="M13.6087 33.7979C13.1945 33.7979 12.8587 34.1337 12.8587 34.5479C12.8587 34.9621 13.1945 35.2979 13.6087 35.2979H34.5479C34.9621 35.2979 35.2979 34.9621 35.2979 34.5479C35.2979 34.1337 34.9621 33.7979 34.5479 33.7979H13.6087Z" fill="#545454"/>
<path d="M13.6087 33.7979C13.1945 33.7979 12.8587 34.1337 12.8587 34.5479C12.8587 34.9621 13.1945 35.2979 13.6087 35.2979H34.5479C34.9621 35.2979 35.2979 34.9621 35.2979 34.5479C35.2979 34.1337 34.9621 33.7979 34.5479 33.7979H13.6087Z" fill="url(#paint1_linear_30_1139)"/>
<path d="M18.0957 38.2849C17.6815 38.2849 17.3457 38.6207 17.3457 39.0349C17.3457 39.4491 17.6815 39.7849 18.0957 39.7849H30.0609C30.4752 39.7849 30.8109 39.4491 30.8109 39.0349C30.8109 38.6207 30.4752 38.2849 30.0609 38.2849H18.0957Z" fill="#545454"/>
<path d="M18.0957 38.2849C17.6815 38.2849 17.3457 38.6207 17.3457 39.0349C17.3457 39.4491 17.6815 39.7849 18.0957 39.7849H30.0609C30.4752 39.7849 30.8109 39.4491 30.8109 39.0349C30.8109 38.6207 30.4752 38.2849 30.0609 38.2849H18.0957Z" fill="url(#paint2_linear_30_1139)"/>
</g>
<defs>
<filter id="filter0_d_30_1139" x="0" y="0" width="48.1566" height="47.7849" filterUnits="userSpaceOnUse" color-interpolation-filters="sRGB">
<feFlood flood-opacity="0" result="BackgroundImageFix"/>
<feColorMatrix in="SourceAlpha" type="matrix" values="0 0 0 0 0 0 0 0 0 0 0 0 0 0 0 0 0 0 127 0" result="hardAlpha"/>
<feOffset/>
<feGaussianBlur stdDeviation="4"/>
<feComposite in2="hardAlpha" operator="out"/>
<feColorMatrix type="matrix" values="0 0 0 0 0.0745098 0 0 0 0 0.109804 0 0 0 0 0.137255 0 0 0 0.13 0"/>
<feBlend mode="normal" in2="BackgroundImageFix" result="effect1_dropShadow_30_1139"/>
<feBlend mode="normal" in="SourceGraphic" in2="effect1_dropShadow_30_1139" result="shape"/>
</filter>
<linearGradient id="paint0_linear_30_1139" x1="24.0783" y1="21" x2="24.0783" y2="39.7849" gradientUnits="userSpaceOnUse">
<stop stop-color="#FFB800"/>
<stop offset="1" stop-color="#1CBEC8"/>
</linearGradient>
<linearGradient id="paint1_linear_30_1139" x1="24.0783" y1="21" x2="24.0783" y2="39.7849" gradientUnits="userSpaceOnUse">
<stop stop-color="#FFB800"/>
<stop offset="1" stop-color="#1CBEC8"/>
</linearGradient>
<linearGradient id="paint2_linear_30_1139" x1="24.0783" y1="21" x2="24.0783" y2="39.7849" gradientUnits="userSpaceOnUse">
<stop stop-color="#FFB800"/>
<stop offset="1" stop-color="#1CBEC8"/>
</linearGradient>
</defs>
</svg>
