<svg width="10" height="12" viewBox="0 0 10 12" fill="none" xmlns="http://www.w3.org/2000/svg">
<path d="M5.32812 8.40455C5.72396 8.40455 6.11208 8.32364 6.4925 8.16182C6.87292 8 7.20354 7.75727 7.48437 7.43363C7.55729 7.35272 7.57292 7.26169 7.53125 7.16056C7.48958 7.05942 7.41667 6.99874 7.3125 6.97851C6.91667 6.91783 6.54167 6.7736 6.1875 6.54584C5.83333 6.31808 5.54687 6.01729 5.32812 5.64349C5.10937 5.27939 4.98437 4.89264 4.95312 4.48324C4.92187 4.07383 4.97917 3.68182 5.125 3.30721C5.16667 3.20607 5.15375 3.11504 5.08625 3.03413C5.01875 2.95322 4.9275 2.92288 4.8125 2.94311C4.09375 3.07459 3.52604 3.40329 3.10938 3.9292C2.69271 4.45512 2.48437 5.03666 2.48437 5.67383C2.48437 6.43236 2.76312 7.07722 3.32062 7.6084C3.87812 8.13957 4.54729 8.40496 5.32812 8.40455ZM5 12H4.84375C4.79167 12 4.74479 11.9899 4.70312 11.9697C3.33854 11.555 2.21354 10.7331 1.32812 9.50412C0.442708 8.2751 0 6.91742 0 5.4311V2.56384C0 2.311 0.0756249 2.08344 0.226875 1.88116C0.378125 1.67889 0.573333 1.53224 0.8125 1.44121L4.5625 0.0758534C4.70833 0.0252845 4.85417 0 5 0C5.14583 0 5.29167 0.0252845 5.4375 0.0758534L9.1875 1.44121C9.42708 1.53224 9.6225 1.67889 9.77375 1.88116C9.925 2.08344 10.0004 2.311 10 2.56384V5.4311C10 6.91783 9.55729 8.2757 8.67187 9.50473C7.78646 10.7338 6.66146 11.5554 5.29687 11.9697C5.24479 11.9899 5.14583 12 5 12Z" fill="url(#paint0_linear_30_1230)"/>
<defs>
<linearGradient id="paint0_linear_30_1230" x1="5" y1="0" x2="5" y2="12" gradientUnits="userSpaceOnUse">
<stop stop-color="#FFB800"/>
<stop offset="1" stop-color="#1CBEC8"/>
</linearGradient>
</defs>
</svg>
