<svg width="45" height="53" viewBox="0 0 45 53" fill="none" xmlns="http://www.w3.org/2000/svg">
<path d="M45 26.5C45.0017 27.1921 44.8236 27.8728 44.4831 28.476C44.1426 29.0792 43.6512 29.5844 43.0568 29.9423L6.21818 52.4C5.59709 52.779 4.88574 52.9859 4.15758 52.9993C3.42943 53.0127 2.71088 52.8322 2.07614 52.4764C1.44744 52.1261 0.923717 51.6152 0.558828 50.9964C0.193938 50.3775 0.00105049 49.6729 0 48.9551V4.04488C0.00105049 3.32708 0.193938 2.62251 0.558828 2.00364C0.923717 1.38476 1.44744 0.873902 2.07614 0.523602C2.71088 0.167777 3.42943 -0.0127386 4.15758 0.000699022C4.88574 0.0141366 5.59709 0.22104 6.21818 0.600041L43.0568 23.0577C43.6512 23.4156 44.1426 23.9208 44.4831 24.524C44.8236 25.1272 45.0017 25.8079 45 26.5Z" fill="#B3BCC4"/>
</svg>
