<svg width="9" height="14" viewBox="0 0 9 14" fill="none" xmlns="http://www.w3.org/2000/svg">
<path d="M2.30153 13.6547L8.62214 7.87892C8.75954 7.75336 8.85664 7.61734 8.91344 7.47085C8.97023 7.32436 8.99908 7.16741 9 7C9 6.83259 8.97115 6.67563 8.91344 6.52915C8.85573 6.38266 8.75863 6.24664 8.62214 6.12108L2.30153 0.345291C2.04962 0.115097 1.72901 0 1.3397 0C0.950382 0 0.629772 0.115097 0.377864 0.345291C0.125955 0.575485 2.08798e-07 0.86846 2.08798e-07 1.22422C2.08798e-07 1.57997 0.125955 1.87294 0.377864 2.10314L5.73664 7L0.377864 11.8969C0.125955 12.1271 2.08798e-07 12.42 2.08798e-07 12.7758C2.08798e-07 13.1315 0.125955 13.4245 0.377864 13.6547C0.629772 13.8849 0.950382 14 1.3397 14C1.72901 14 2.04962 13.8849 2.30153 13.6547Z" fill="#A2A2A2"/>
</svg>
