<?xml version="1.0" encoding="utf-8"?>
<!-- Generator: Adobe Illustrator 24.3.0, SVG Export Plug-In . SVG Version: 6.00 Build 0)  -->
<svg version="1.1" id="레이어_1" xmlns="http://www.w3.org/2000/svg" xmlns:xlink="http://www.w3.org/1999/xlink" x="0px"
	 y="0px" viewBox="0 0 18 18" style="enable-background:new 0 0 18 18;" xml:space="preserve">
<style type="text/css">
	.st0{fill:#B3BCC4;}
</style>
<path class="st0" d="M17,18c-0.3,0-0.5-0.1-0.7-0.3L11.6,13c-0.5,0.4-1,0.7-1.6,0.9c-1.8,0.7-3.8,0.7-5.5,0
	c-0.9-0.4-1.7-0.9-2.3-1.6c-0.7-0.7-1.2-1.5-1.6-2.3C0.2,9.1,0,8.2,0,7.2c0-1.9,0.8-3.7,2.1-5.1C3.5,0.8,5.3,0,7.2,0
	s3.7,0.8,5.1,2.1c1.4,1.4,2.1,3.2,2.1,5.1c0,1-0.2,1.9-0.5,2.8c-0.2,0.6-0.5,1.1-0.9,1.6l4.7,4.7c0.4,0.4,0.4,1,0,1.4
	C17.5,17.9,17.3,18,17,18z M7.2,2C5.8,2,4.5,2.5,3.5,3.5C2.5,4.5,2,5.8,2,7.2c0,0.7,0.1,1.4,0.4,2c0.3,0.6,0.6,1.2,1.1,1.7
	C4,11.4,4.6,11.8,5.2,12c1.3,0.5,2.7,0.5,4,0c0.6-0.3,1.2-0.6,1.7-1.1s0.9-1.1,1.1-1.7c0.3-0.6,0.4-1.3,0.4-2c0-1.4-0.5-2.7-1.5-3.7
	C9.9,2.5,8.6,2,7.2,2z"/>
</svg>
