<svg width="116" height="116" viewBox="0 0 116 116" fill="none" xmlns="http://www.w3.org/2000/svg">
<g filter="url(#filter0_d_249_1136)">
<path d="M33 43C33 38.285 33 35.93 34.465 34.465C35.93 33 38.285 33 43 33C47.715 33 50.07 33 51.535 34.465C53 35.93 53 38.285 53 43V73C53 77.715 53 80.07 51.535 81.535C50.07 83 47.715 83 43 83C38.285 83 35.93 83 34.465 81.535C33 80.07 33 77.715 33 73V43ZM63 43C63 38.285 63 35.93 64.465 34.465C65.93 33 68.285 33 73 33C77.715 33 80.07 33 81.535 34.465C83 35.93 83 38.285 83 43V73C83 77.715 83 80.07 81.535 81.535C80.07 83 77.715 83 73 83C68.285 83 65.93 83 64.465 81.535C63 80.07 63 77.715 63 73V43Z" fill="white"/>
</g>
<defs>
<filter id="filter0_d_249_1136" x="0" y="0" width="116" height="116" filterUnits="userSpaceOnUse" color-interpolation-filters="sRGB">
<feFlood flood-opacity="0" result="BackgroundImageFix"/>
<feColorMatrix in="SourceAlpha" type="matrix" values="0 0 0 0 0 0 0 0 0 0 0 0 0 0 0 0 0 0 127 0" result="hardAlpha"/>
<feOffset/>
<feGaussianBlur stdDeviation="16.5"/>
<feComposite in2="hardAlpha" operator="out"/>
<feColorMatrix type="matrix" values="0 0 0 0 1 0 0 0 0 1 0 0 0 0 1 0 0 0 0.55 0"/>
<feBlend mode="normal" in2="BackgroundImageFix" result="effect1_dropShadow_249_1136"/>
<feBlend mode="normal" in="SourceGraphic" in2="effect1_dropShadow_249_1136" result="shape"/>
</filter>
</defs>
</svg>
