<svg width="53" height="53" viewBox="0 0 53 53" fill="none" xmlns="http://www.w3.org/2000/svg">
<path d="M0 10.6C0 5.6021 -1.57952e-07 3.1058 1.5529 1.5529C3.1058 -1.57952e-07 5.6021 0 10.6 0C15.5979 0 18.0942 -1.57952e-07 19.6471 1.5529C21.2 3.1058 21.2 5.6021 21.2 10.6V42.4C21.2 47.3979 21.2 49.8942 19.6471 51.4471C18.0942 53 15.5979 53 10.6 53C5.6021 53 3.1058 53 1.5529 51.4471C-1.57952e-07 49.8942 0 47.3979 0 42.4V10.6ZM31.8 10.6C31.8 5.6021 31.8 3.1058 33.3529 1.5529C34.9058 -1.57952e-07 37.4021 0 42.4 0C47.3979 0 49.8942 -1.57952e-07 51.4471 1.5529C53 3.1058 53 5.6021 53 10.6V42.4C53 47.3979 53 49.8942 51.4471 51.4471C49.8942 53 47.3979 53 42.4 53C37.4021 53 34.9058 53 33.3529 51.4471C31.8 49.8942 31.8 47.3979 31.8 42.4V10.6Z" fill="#B3BCC4"/>
</svg>
