<svg width="27" height="25" viewBox="0 0 27 25" fill="none" xmlns="http://www.w3.org/2000/svg">
<path d="M6.56533 12.1305L0.260986 12.1561V24.7392L6.7078 24.4534L6.56533 12.1305Z" fill="url(#paint0_linear_43_3628)"/>
<path d="M25.0757 23.7383L26.7306 10.0113C26.7502 9.85023 26.7365 9.6867 26.6904 9.53156C26.6443 9.37643 26.5669 9.23324 26.4633 9.11151C26.3597 8.98979 26.2324 8.89231 26.0897 8.82556C25.947 8.75881 25.7922 8.72432 25.6356 8.72437H16.8097C16.5171 8.72437 16.2364 8.60385 16.0295 8.38933C15.8227 8.1748 15.7064 7.88384 15.7064 7.58045V4.1487C15.7066 3.35527 15.4417 2.58629 14.9567 1.97259C14.4717 1.3589 13.7965 0.938424 13.0462 0.782715L7.9837 11.2825V24.7392H23.9808C24.2495 24.7393 24.5091 24.6377 24.7107 24.4534C24.9123 24.2691 25.0421 24.0148 25.0757 23.7383Z" fill="url(#paint1_linear_43_3628)"/>
<defs>
<linearGradient id="paint0_linear_43_3628" x1="9.08707" y1="7.7175" x2="23.5871" y2="24.1088" gradientUnits="userSpaceOnUse">
<stop offset="0.0567946" stop-color="#FFCE4F"/>
<stop offset="1" stop-color="#1CBEC8"/>
</linearGradient>
<linearGradient id="paint1_linear_43_3628" x1="9.08707" y1="7.7175" x2="23.5871" y2="24.1088" gradientUnits="userSpaceOnUse">
<stop offset="0.0567946" stop-color="#FFCE4F"/>
<stop offset="1" stop-color="#1CBEC8"/>
</linearGradient>
</defs>
</svg>
