<?xml version="1.0" encoding="utf-8"?>
<!-- Generator: Adobe Illustrator 24.3.0, SVG Export Plug-In . SVG Version: 6.00 Build 0)  -->
<svg version="1.1" id="레이어_1" xmlns="http://www.w3.org/2000/svg" xmlns:xlink="http://www.w3.org/1999/xlink" x="0px"
	 y="0px" viewBox="0 0 148.9 29.7" style="enable-background:new 0 0 148.9 29.7;" xml:space="preserve">
<style type="text/css">
	.st0{enable-background:new    ;}
	.st1{fill:#FFFFFF;}
</style>
<g class="st0">
	<path class="st1" d="M1.8,27.7c-0.1-0.1-0.2-0.2-0.3-0.4c-0.1-0.1-0.1-0.3-0.2-0.6c-0.4-0.4-0.7-1-0.9-1.5C0.2,24.6,0,24,0,23.4
		c0-0.5,0-1.1,0-1.8c0.1-0.6,0.1-1.2,0.3-1.8c0.1-0.3,0.1-0.5,0.2-0.8c0.1-0.5,0.3-1,0.4-1.5s0.3-0.9,0.6-1.2
		c-0.1-0.3-0.1-0.6,0-0.9c0.1-0.3,0.3-0.7,0.4-0.9C2,14.5,2,14.4,2,14.3c0-0.1,0.1-0.1,0.1-0.2c0.3-0.9,0.6-1.8,0.9-2.6
		s0.6-1.7,0.9-2.4c0.5-1.4,1-2.8,1.5-4.2S6.3,2,6.7,0.4c0.2-0.2,0.4-0.3,0.5-0.3S7.3,0,7.4,0s0.2,0,0.3,0c0.5,0.3,1.2,0.6,1.9,0.8
		c0.8,0.2,1.4,0.4,2,0.4l0.7,0.6c0.3,0.4,0.6,0.8,0.9,1.2c0.2,0.4,0.3,1,0.2,1.7C13.2,4.9,13,5,12.9,5.1c-0.2,0.6-0.3,1.1-0.5,1.6
		S12,7.6,11.9,8c-0.2,0.5-0.4,0.9-0.6,1.4c-0.2,0.5-0.3,1-0.5,1.7c-0.2,0.2-0.3,0.3-0.3,0.5c0,0.1-0.1,0.3-0.1,0.4
		c-0.1,0.2-0.1,0.3-0.2,0.5c-0.1,0.2-0.2,0.3-0.4,0.4c-0.1,0.8-0.3,1.5-0.5,2s-0.4,1-0.6,1.5c-0.4,0.9-0.7,1.8-1,2.7
		c-0.3,0.9-0.5,1.9-0.5,3C7.5,22.1,7.8,22,8,22c0.3,0,0.7,0.1,1,0.2c0.9-0.5,2-0.8,3.1-0.9s2.2-0.2,3.3-0.2c0.9,0,1.8,0,2.5-0.1
		c0.3,0.2,0.4,0.3,0.5,0.3s0.2,0,0.4,0c0.1,0,0.2,0,0.2,0s0.2,0,0.3,0c0.4,0.4,0.7,0.6,1.1,0.8c0.3,0.1,0.7,0.3,1.1,0.4
		c0.3,0.1,0.7,0.3,1,0.4s0.6,0.3,1,0.6l0.4,2c0.2,0.3,0.3,0.5,0.3,0.6c0,0.2-0.1,0.4-0.2,0.5l0.1,0.5c-0.5,0.1-0.8,0.2-1,0.3
		s-0.3,0.3-0.5,0.4c-0.3,0-0.6,0-0.8,0c-0.5,0-1.1,0.1-1.6,0.2c-0.8-0.3-1.6-0.4-2.6-0.4c-0.4,0-0.7,0-1.1,0s-0.7,0.1-1.1,0.1
		c-0.4,0.1-0.8,0.1-1.2,0.1s-0.8,0.1-1.2,0.1C12.7,28,12.5,28,12.3,28c-0.1,0-0.3,0.1-0.4,0.1C11,28.4,10.1,28.7,9,29
		c-1,0.3-2.1,0.4-3.1,0.4c-1.5,0-2.8-0.4-3.7-1.2C2.1,28.2,2,28.1,2,28C1.9,27.9,1.9,27.8,1.8,27.7z"/>
	<path class="st1" d="M48.4,7c0.1,0.6,0.1,1.1,0.3,1.5c0.1,0.4,0.3,0.8,0.4,1.2c0.1,0.4,0.3,0.7,0.4,1.1s0.2,0.8,0.3,1.3
		c-0.2,0.7-0.4,1.3-0.4,1.9c-0.1,0.6-0.2,1.2-0.3,1.8c-0.4,0.9-0.8,1.7-1.2,2.4S47.2,19.5,47,20c-0.1,0.1-0.2,0.3-0.3,0.4
		c-0.1,0.2-0.2,0.3-0.3,0.5c-0.1,0.1-0.1,0.2-0.2,0.4s-0.1,0.3-0.2,0.3l-1-0.3l-0.2,1l-0.5,0.2L43.9,23c-0.5,0.9-1,1.6-1.6,2.2
		s-1.2,1.1-1.9,1.6s-1.5,0.9-2.3,1.3c-0.9,0.4-1.9,0.8-2.9,1.3c-0.4-0.1-0.8-0.1-1.2-0.1c-0.3,0-0.6,0-0.9-0.1c-0.5,0-1.1,0-1.8-0.1
		c-0.1-0.2-0.2-0.4-0.4-0.4s-0.3-0.1-0.4-0.1c-0.4-0.2-0.8-0.5-1-0.9s-0.4-0.8-0.6-1.3c-0.1-0.3-0.3-0.6-0.4-0.8
		c-0.1-0.2-0.3-0.5-0.4-0.8l0.7-0.2l-0.9-0.9c-0.1-0.1-0.1-0.1-0.2-0.2s-0.1-0.1-0.2-0.2v-0.6c-0.1-1.8-0.1-3.4-0.1-4.9
		s0.2-2.8,0.6-4V13c0.1-0.6,0.2-1,0.2-1.4c0.1-0.4,0.1-0.7,0.2-1.1c0.1-0.6,0.2-1.1,0.4-1.6c0.4-0.1,0.6-0.2,0.8-0.4
		C29.7,8.2,29.9,8,30,7.9c0.4,0,0.6,0,0.7,0.2c0.1,0.1,0.3,0.3,0.4,0.6c0.1,0.2,0.3,0.5,0.5,0.8s0.5,0.5,0.9,0.7
		c0.1,0.2,0.1,0.4,0.2,0.6c0.1,0.2,0.2,0.5,0.3,0.7c0.2,0.4,0.4,0.9,0.6,1.4c0.2,0.5,0.3,0.9,0.3,1.4c-0.3,0.5-0.5,1.1-0.6,1.7
		c-0.1,0.7-0.2,1.3-0.3,2s0,1.3,0,1.9c0.1,0.6,0.2,1.1,0.3,1.5l0.2,0.5l0.7-0.1c0.8-0.2,1.5-0.4,2.1-0.7c0.6-0.2,1.2-0.5,1.8-0.9
		c0.5-0.3,1.1-0.7,1.6-1.2s1-1,1.6-1.6c0.5-0.6,1-1.3,1.4-2.1c0.4-0.8,0.7-1.6,1-2.4c0.3-0.8,0.5-1.7,0.6-2.5s0.2-1.6,0.3-2.3
		c0.4-0.2,0.7-0.5,0.7-0.9l-0.1-0.4c-0.1-0.2-0.1-0.3,0-0.5c0.2-0.5,0.5-0.9,1.1-1.1c0.4,0.3,0.8,0.5,1.1,0.9
		C47.8,6.3,48.1,6.6,48.4,7z"/>
	<path class="st1" d="M77.7,28.5c-0.3,0.1-0.5,0.2-0.7,0.4c-0.2,0.1-0.5,0.2-0.8,0.2c-1-0.8-1.5-2.1-1.6-3.9s0.4-4.3,1.2-7.1
		c0.1-0.1,0.2-0.2,0.2-0.5L75.7,17c-0.1,0-0.2,0-0.3,0c-0.1,0-0.2,0.1-0.2,0.3c-0.7,0.5-1.4,1-2.2,1.5c-0.8,0.5-1.6,1-2.5,1.5
		s-1.8,0.8-2.7,1.1c-0.9,0.3-1.8,0.4-2.6,0.4c-2.2,0-3.8-1.1-4.9-3.3L59.9,18l-0.3,0.5c-0.1,0.1-0.2,0.3-0.4,0.6
		c-0.2,0.3-0.3,0.7-0.5,1.1s-0.3,0.8-0.4,1.3s-0.2,0.8-0.1,1.1c-0.2,0.2-0.5,0.5-0.7,0.8c-0.3,0.3-0.5,0.7-0.6,1.1
		c-0.1,0.2,0,0.4,0.1,0.6c-0.1,0.2-0.2,0.4-0.4,0.5c-0.1,0.1-0.2,0.3-0.3,0.4s-0.2,0.2-0.3,0.4c-0.1,0.1-0.1,0.3-0.1,0.4
		s0,0.3-0.1,0.4c0,0.2,0,0.4-0.1,0.5c-0.4,0.9-0.8,1.5-1.1,1.8s-0.6,0.4-1.1,0.4c-0.2,0-0.5,0-1-0.1c-0.3-0.4-0.6-0.9-0.9-1.5
		c-0.3-0.6-0.5-1.3-0.6-2.1c-0.1-0.7-0.2-1.5-0.2-2.2s0.1-1.4,0.4-1.9c0,0,0.1-0.3,0.3-0.8s0.5-1.1,0.8-1.9s0.7-1.6,1.1-2.6
		c0.4-1,0.8-1.9,1.2-2.8c0.4-0.9,0.8-1.7,1.2-2.5s0.7-1.3,1-1.7c0.2-0.3,0.4-0.6,0.6-0.9c0.2-0.3,0.3-0.5,0.5-0.8
		c0.5-0.8,0.9-1.5,1.3-2c0.4-0.5,1.1-1,1.9-1.3c0.6,0.2,1,0.5,1.2,0.8L62.4,6c0.1,0.3,0.3,0.4,0.5,0.4c0.3,0.1,0.5,0.2,0.7,0.2
		c0.2,0.1,0.4,0.1,0.6,0.2c0.2,0.2,0.4,0.5,0.5,0.7c0.2,0.3,0.4,0.6,0.6,0.9c0.2,0.3,0.4,0.6,0.5,0.9c0.1,0.3,0.2,0.6,0.2,0.9
		c0,0.3,0,0.6-0.2,1v0.4c0.1,0.2,0.2,0.6,0.1,1c0,0.2,0,0.4,0,0.6s0,0.4,0.1,0.6c0.5,0.4,0.9,0.5,1.2,0.5c0.4,0,0.8-0.1,1.2-0.3
		s0.7-0.4,1-0.6c0.2-0.2,0.4-0.3,0.6-0.4c0.2-0.1,0.4-0.2,0.6-0.2c0.5-0.4,0.9-0.8,1.3-1.2c0.4-0.3,0.8-0.7,1.2-1
		c0.8-0.6,1.5-1.3,2.3-2C76.2,8,76.8,7.1,77.3,6c0.3-0.2,0.5-0.2,0.8-0.2S78.7,5.9,79,6s0.6,0.3,0.9,0.4c0.1,0,0.1,0,0.2,0
		s0.1,0.1,0.2,0.1c0,0.3,0.1,0.5,0.3,0.7c0.1,0.1,0.2,0.1,0.2,0.2l0.1,0.1c0.4,0.2,0.6,0.4,0.7,0.6c0.2,0.6,0.5,1.1,1,1.4
		c-0.1,0.3,0,0.5,0,0.7c0.1,0.2,0.1,0.4,0.3,0.7c0,0.1,0.1,0.2,0.1,0.2c0,0.1,0.1,0.2,0.1,0.3l-0.7-0.1l0.1,0.7
		c0.1,0.4,0,0.8-0.1,1.2S82.1,14,82,14.3c0,0.7,0,1.2,0.1,1.6c0,0.4,0,0.7-0.1,1.1c-0.1,0.3-0.1,0.6-0.2,0.9s-0.2,0.6-0.4,0.9
		c0.1,1.7-0.1,3.2-0.6,4.6s-1,2.7-1.5,3.8c-0.1,0.1-0.1,0.3-0.2,0.4S79,27.9,78.9,28c-0.2,0.1-0.4,0.2-0.6,0.3
		C78.2,28.3,78,28.4,77.7,28.5z"/>
	<path class="st1" d="M93.6,26.4c0.1,0.8,0.1,1.4-0.1,1.8s-0.5,0.8-0.9,1s-0.9,0.3-1.4,0.4c-0.5,0-1,0-1.5-0.1
		c-0.3-0.4-0.5-0.8-0.7-1.4c-0.2-0.5-0.4-1.1-0.6-1.7s-0.3-1.2-0.5-1.7c-0.1-0.6-0.3-1.1-0.4-1.5c0.1-0.3,0.2-0.7,0.3-1.1
		c0-0.4,0.1-0.8,0.1-1.2c0-0.4,0-0.8,0-1.3c0-0.4,0-0.8,0.1-1.2c0.2-1.1,0.4-2.1,0.8-3.1s0.6-2,0.8-3.1c0.1-0.2,0-0.5-0.1-0.7
		s-0.1-0.4-0.1-0.6c0-0.1,0.1-0.2,0.2-0.2s0.2-0.1,0.2-0.3C90,10.2,90,10,90,9.8s0-0.4,0.1-0.7c0.1-0.2,0.3-0.5,0.5-0.9
		c0.2-0.4,0.3-0.8,0.2-1.3c0.2-0.2,0.5-0.3,0.7-0.5s0.4-0.4,0.6-0.6s0.5-0.3,0.7-0.4c0.3-0.1,0.6-0.2,1-0.2c0.2,0.3,0.3,0.5,0.4,0.9
		c0.1,0.3,0.1,0.6,0.2,0.9s0.2,0.6,0.3,0.9c0.1,0.3,0.4,0.5,0.7,0.6c0,0.2,0,0.5,0,0.8s0,0.6,0,0.9c0,0.3,0.1,0.6,0.2,0.8
		s0.2,0.4,0.4,0.5c-0.5,1.2-0.9,2.5-1.3,3.7s-0.7,2.5-1,3.7s-0.4,2.5-0.5,3.7C93.3,23.9,93.3,25.2,93.6,26.4z"/>
	<path class="st1" d="M120.8,25.9c-0.2,0.4-0.4,0.9-0.7,1.3c-0.3,0.5-0.7,0.9-1.1,1.2c-0.4,0.4-0.9,0.6-1.3,0.9
		c-0.5,0.2-1,0.4-1.6,0.4c-0.3-0.1-0.6-0.2-0.7-0.3c-0.1-0.1-0.2-0.2-0.4-0.3c-0.1-0.1-0.2-0.1-0.2-0.1c-0.1,0-0.1-0.1-0.2-0.1
		l-0.5-0.2l0.2-0.5c0.1-0.2,0-0.4,0-0.5s-0.2-0.3-0.5-0.5c-0.1-0.1-0.2-0.2-0.2-0.2s-0.1-0.2-0.2-0.2l-0.7-0.7l1.1-0.3
		c0.7-0.2,1.1-0.4,1.3-0.7c0.2-0.3,0.3-0.8,0.3-1.4c-0.5-0.1-1-0.1-1.3,0s-0.7,0.2-1.1,0.3c-0.5,0.1-0.9,0.2-1.4,0.3
		c-0.5,0.1-1,0.1-1.6,0.1c-0.2,0-0.4,0-0.6,0s-0.4,0-0.6-0.1l-0.4-0.1c-0.1-0.3-0.1-0.4-0.2-0.5c-0.1,0-0.1-0.1-0.2-0.1
		c-0.1-0.1-0.3-0.3-0.4-0.5s-0.2-0.5-0.1-0.8c-0.1-0.2-0.2-0.5-0.2-0.7c-0.2,0.3-0.3,0.6-0.4,1l-0.2,0.4l-0.4,0.1
		c-0.1,0-0.1,0.1-0.1,0.2s0,0.2,0,0.2l-0.2,0.7c-0.1,0.1-0.1,0.1-0.2,0.1s-0.1,0.1-0.2,0.1c-0.1,0.2-0.1,0.5-0.2,0.7
		s-0.2,0.5-0.2,0.7c-0.1,0.3-0.2,0.7-0.3,1c-0.1,0.3-0.1,0.6-0.1,1l-0.2,0.4c-0.1,0.2-0.3,0.3-0.4,0.4c-0.2,0.1-0.3,0.2-0.5,0.3
		c-0.1,0.1-0.1,0.1-0.2,0.1s-0.2,0.1-0.2,0.1l-0.1,0.4l-0.5,0.1c-0.3,0.1-0.5,0.1-0.6,0.1s-0.3,0-0.4,0h-0.4
		c-0.3-0.2-0.5-0.4-0.7-0.6c-0.2-0.1-0.3-0.3-0.5-0.4c-0.2-0.3-0.4-0.5-0.4-0.7s-0.1-0.3-0.1-0.4c-0.1-0.2-0.1-0.3-0.1-0.4
		s0-0.2-0.1-0.2l-0.5-0.5l0.4-0.4v-0.7c0.5-1.3,1.1-2.6,1.7-3.8c0.6-1.2,1.2-2.5,1.8-3.8c0.2-0.4,0.4-0.8,0.6-1.2
		c0.2-0.4,0.4-0.8,0.6-1.2c0-0.1,0-0.2,0-0.3s0-0.2,0.1-0.4c0.3-0.4,0.5-0.8,0.7-1.2s0.4-0.7,0.5-1.1c0.2-0.4,0.4-0.9,0.6-1.3
		c0.2-0.4,0.5-0.8,0.8-1.3l0.6-0.3c0.1,0,0.2-0.1,0.3-0.1c0.1,0,0.2-0.1,0.4-0.1l0.6,0.1c0.7-0.3,1.4-0.8,1.9-1.4s1.1-1.3,1.7-2.2
		l0.4-0.5l0.5,0.3c0.1,0.1,0.3,0.2,0.5,0.2c0.2,0.1,0.5,0.1,0.7,0.2c0.5,0.1,0.9,0.2,1.3,0.4c0.4,0.1,0.8,0.3,1,0.6
		c0.2,0.4,0.2,0.7,0.3,0.9c0,0.2,0.1,0.4,0.1,0.6c0.1,0.4,0.1,0.9,0.2,1.3c0.1,0.4,0.1,0.9,0.1,1.5c0.1,0.4,0.2,0.9,0.3,1.3
		c0.1,0.4,0.2,0.9,0.3,1.3c0.1,0.6,0.3,1.2,0.4,1.8c0.1,0.6,0.3,1.1,0.5,1.7c0.2,0,0.3,0,0.4,0c0.1-0.1,0.3-0.1,0.4-0.1
		s0.3-0.1,0.5-0.1h0.4l0.2,0.4c0,0.1,0.2,0.3,0.4,0.4c0.3,0,0.6,0.1,0.7,0.2s0.3,0.2,0.4,0.4c0.1,0.1,0.2,0.2,0.3,0.2l0.6,0.2
		l-0.3,0.6c-0.3,0.5-0.6,0.9-1.1,1.3s-1,0.8-1.6,1.1c0,0.2,0,0.3,0.1,0.4c0,0.1,0,0.3,0.1,0.4c0.1,0.4,0.1,0.9,0.2,1.4s0.1,1,0,1.4
		L120.8,25.9z M109.5,19.1c0.8-0.1,1.5-0.1,2.1-0.2s1.3-0.2,2.1-0.3c-0.2-0.8-0.4-1.6-0.6-2.4c-0.2-0.8-0.4-1.7-0.7-2.5l-0.2,0.4
		c-0.5,0.5-1,1.2-1.5,1.8c-0.5,0.7-0.9,1.3-1.2,1.9c-0.2,0.2-0.3,0.5-0.5,0.7s-0.3,0.5-0.4,0.7c0.2,0,0.3,0,0.4,0
		C109.2,19.2,109.4,19.2,109.5,19.1z"/>
	<path class="st1" d="M133.4,22.1c-0.2,0.1-0.4,0.2-0.5,0.4c-0.1,0.2-0.2,0.4-0.3,0.7c-0.1,0.2-0.2,0.4-0.3,0.6s-0.2,0.3-0.4,0.3
		c0,0.2-0.1,0.4-0.2,0.5s-0.2,0.3-0.3,0.5s-0.2,0.4-0.2,0.5c-0.1,0.2,0,0.4,0.1,0.7c-0.2,0.2-0.3,0.4-0.4,0.7
		c-0.1,0.3-0.1,0.6-0.2,0.8c-0.1,0.3-0.2,0.5-0.3,0.7c-0.2,0.2-0.4,0.3-0.9,0.2c-0.1,0.1-0.1,0.2,0,0.2s0.1,0.1,0.1,0.3
		c-0.3-0.1-0.5,0-0.6,0.1s-0.3,0.1-0.5,0.2c-0.5-0.2-0.9-0.4-1.2-0.8c-0.3-0.4-0.6-0.8-0.9-1.3c-0.2-0.5-0.5-1-0.7-1.5
		s-0.4-0.9-0.6-1.3c0.1-0.3,0.1-0.6,0-0.8c-0.1-0.3-0.1-0.5-0.3-0.7c1.3-2.7,2.7-5.6,4.2-8.7s2.9-6.1,4.3-9.1
		c0.6,0.2,1.2,0.5,1.8,0.8s1.1,0.6,1.6,1s0.9,0.8,1.2,1.3s0.6,1.1,0.7,1.7c-0.1,0.2-0.1,0.2-0.2,0.2c-0.1,0-0.1,0-0.2,0.1
		c0.1,0.1,0.2,0.2,0.2,0.3s0,0.1,0,0.2c0,0.1,0,0.1,0,0.2c0,0.1,0,0.2,0.1,0.4c-0.1,0-0.2,0-0.2,0c0,0.1-0.1,0.1-0.3,0
		c0.1,0.3,0.1,0.5,0.1,0.7s-0.1,0.3-0.2,0.5c-0.1,0.1-0.1,0.3-0.2,0.5c-0.1,0.2,0,0.4,0,0.6c-0.1,0-0.1,0-0.2,0.1s-0.1,0.1-0.1,0.1
		l-0.1,0.1c0,0-0.1,0-0.2,0c0.1,0.6,0.1,1.1,0.1,1.7c0,0.6,0,1.2-0.1,1.7c0,0.6,0,1.2,0,1.8c0,0.6,0.1,1.3,0.3,2
		c0.9-0.5,1.7-1.2,2.2-2.1c0.6-0.9,1-1.8,1.4-2.9s0.6-2.2,0.8-3.4s0.4-2.5,0.6-3.8c0.2-0.2,0.4-0.5,0.5-0.9c0.1-0.3,0.2-0.7,0.4-1.1
		c0.1-0.4,0.2-0.8,0.3-1.1c0.1-0.4,0.2-0.7,0.4-1c0.4,0.1,0.7,0.2,1,0.4s0.5,0.4,0.8,0.6c0.2,0.2,0.5,0.4,0.7,0.6
		c0.3,0.2,0.6,0.3,1,0.4c0.3,0.4,0.6,0.9,0.9,1.3c0.3,0.4,0.4,0.9,0.5,1.3c-0.1,0.2-0.2,0.4-0.3,0.7s-0.1,0.5-0.2,0.8
		c-0.1,0.3-0.2,0.5-0.3,0.7s-0.3,0.4-0.5,0.6c-0.1,0.7-0.2,1.3-0.3,1.9c-0.1,0.6-0.2,1.1-0.4,1.7c-0.2,0.6-0.2,1.1-0.3,1.7
		s-0.1,1.2-0.1,1.9c-0.2,0.6-0.4,1.2-0.7,1.9c-0.2,0.7-0.4,1.3-0.5,1.8c-0.4,0.3-0.7,0.7-1,1.2s-0.5,0.9-0.7,1.4
		c-0.1,0.1-0.2,0.1-0.2,0.1c0-0.1-0.1-0.1-0.3-0.1c0,0.1,0,0.2,0,0.2c0,0.1-0.1,0.1-0.1,0.1s-0.1,0.1-0.1,0.2s0,0.2,0.1,0.3
		c-0.4,0.2-0.7,0.4-1,0.7c-0.3,0.3-0.6,0.5-0.9,0.8c-0.3,0.2-0.7,0.4-1.2,0.5s-1,0-1.8-0.3c-1.1-0.8-2-1.7-2.8-2.7
		S133.9,23.5,133.4,22.1z"/>
</g>
</svg>
